<svg width="20" height="20" viewBox="0 0 20 20" fill="none" xmlns="http://www.w3.org/2000/svg">
<g clip-path="url(#clip0_11_313)">
<path d="M9.5 7.49996H13.25L12.8333 9.16663H9.5V16.6666H7.83333V9.16663H4.5V7.49996H7.83333V5.93996C7.83333 4.45413 7.98833 3.91496 8.27833 3.37163C8.56251 2.8348 9.00151 2.3958 9.53833 2.11163C10.0817 1.82163 10.6208 1.66663 12.1067 1.66663C12.5417 1.66663 12.9233 1.70829 13.25 1.79163V3.33329H12.1067C11.0033 3.33329 10.6675 3.39829 10.325 3.58163C10.0717 3.71663 9.88333 3.90496 9.74833 4.15829C9.565 4.50079 9.5 4.83663 9.5 5.93996V7.49996Z" fill="white" fill-opacity="0.9"/>
</g>
<defs>
<clipPath id="clip0_11_313">
<rect width="20" height="20" fill="white"/>
</clipPath>
</defs>
</svg>
