<svg width="17" height="15" viewBox="0 0 17 15" fill="none" xmlns="http://www.w3.org/2000/svg">
<path d="M11.7516 2.62489C11.1182 2.62479 10.5101 2.87333 10.0581 3.31703C9.60618 3.76074 9.34647 4.36414 9.3349 4.99739L9.31156 6.30989C9.3102 6.38036 9.29395 6.44975 9.26388 6.5135C9.23381 6.57724 9.19061 6.63392 9.1371 6.67979C9.08359 6.72567 9.02098 6.75971 8.95339 6.77969C8.8858 6.79967 8.81475 6.80514 8.7449 6.79573L7.44406 6.61906C5.7324 6.38573 4.0924 5.59739 2.51906 4.28656C2.02073 7.04489 2.99406 8.95573 5.33823 10.4299L6.79406 11.3449C6.86323 11.3884 6.9207 11.4481 6.96144 11.5189C7.00217 11.5898 7.02493 11.6695 7.02773 11.7511C7.03052 11.8328 7.01327 11.9139 6.97747 11.9873C6.94168 12.0607 6.88843 12.1243 6.8224 12.1724L5.49573 13.1416C6.2849 13.1907 7.03406 13.1557 7.65573 13.0324C11.5874 12.2474 14.2016 9.28906 14.2016 4.40906C14.2016 4.01073 13.3582 2.62489 11.7516 2.62489ZM7.66823 4.96656C7.68277 4.16327 7.93397 3.38212 8.39036 2.72091C8.84675 2.0597 9.48806 1.54782 10.234 1.24936C10.9799 0.950904 11.7973 0.879125 12.5838 1.04301C13.3704 1.2069 14.0911 1.59918 14.6557 2.17073C15.2482 2.16656 15.7524 2.31656 16.8799 1.63323C16.6007 2.99989 16.4632 3.59323 15.8682 4.40906C15.8682 10.7774 11.9541 13.8741 7.9824 14.6666C5.25906 15.2099 1.29906 14.3174 0.164062 13.1324C0.742396 13.0874 3.0924 12.8349 4.45073 11.8407C3.30156 11.0832 -1.2726 8.39156 1.73323 1.15489C3.14406 2.80239 4.5749 3.92406 6.0249 4.51906C6.9899 4.91489 7.22656 4.90656 7.66906 4.96739L7.66823 4.96656Z" fill="white" fill-opacity="0.9"/>
</svg>
